<?xml version="1.0" encoding="utf-8"?>
<!-- Generator: Adobe Illustrator 26.0.1, SVG Export Plug-In . SVG Version: 6.00 Build 0)  -->
<svg version="1.1" xmlns="http://www.w3.org/2000/svg" xmlns:xlink="http://www.w3.org/1999/xlink" x="0px" y="0px"
	 viewBox="0 0 1080 1080" style="enable-background:new 0 0 1080 1080;" xml:space="preserve">
<style type="text/css">
	.st0{opacity:0.27;fill:#FFFFFF;stroke:#000000;stroke-miterlimit:10;}
	.st1{fill:#3B5FA0;}
	.st2{fill:#3D316C;}
	.st3{fill:#272349;}
	.st4{fill:#DF226F;}
	.st5{fill:#F5EAB8;}
	.st6{fill:#8B2C78;}
	.st7{fill:#F3E9B7;}
	.st8{fill:#489986;}
	.st9{fill:#499986;}
	.st10{fill:#F4EAB5;}
	.st11{fill:#498BA4;}
	.st12{fill:#EDAA2E;}
	.st13{fill:#4975A0;}
	.st14{fill:#F5E9B6;}
	.st15{fill:#C72948;}
	.st16{fill:#ECBD87;}
	.st17{fill:#F5EAB6;}
	.st18{fill:#B1B575;}
	.st19{fill:#6AB9B5;}
</style>
<g id="Layer_1">
	
		<image style="overflow:visible;" width="1489" height="1089" xlink:href="1d2b4457354057.59d2c865b4bbb.jpg"  transform="matrix(1 0 0 1 -2697 -20)">
	</image>
</g>
<g id="Layer_2">
	<path class="st0" d="M-1878.1,332.5h-116.81c-21.87,0-39.6,17.73-39.6,39.6V637.9c0,21.87,17.73,39.6,39.6,39.6h116.81
		c21.87,0,39.6-17.73,39.6-39.6V372.1C-1838.5,350.23-1856.23,332.5-1878.1,332.5z"/>
	<path class="st0" d="M-1878,378.5h-38c-8.01,0-14.5-6.49-14.5-14.5l0,0c0-8.01,6.49-14.5,14.5-14.5h38c8.01,0,14.5,6.49,14.5,14.5
		l0,0C-1863.5,372.01-1869.99,378.5-1878,378.5z"/>
	<path class="st0" d="M-2027.19,416.5h57.38c4.04,0,7.31-3.27,7.31-7.31v-69.38c0-4.04-3.27-7.31-7.31-7.31h-57.38
		c-4.04,0-7.31,3.27-7.31,7.31v69.38C-2034.5,413.23-2031.23,416.5-2027.19,416.5z"/>
	<rect x="-2026.5" y="348.5" class="st0" width="48" height="48"/>
	<rect x="-2117.5" y="272.5" class="st0" width="48" height="48"/>
	
		<rect x="-2116.5" y="178.5" transform="matrix(0.9463 0.3233 -0.3233 0.9463 -46.8831 687.2826)" class="st0" width="48" height="48"/>
	<rect x="-2202.5" y="304.5" transform="matrix(0.5 0.866 -0.866 0.5 -804.7607 2050.8862)" class="st0" width="48" height="48"/>
	
		<rect x="-2029.5" y="253.5" transform="matrix(0.4177 0.9086 -0.9086 0.4177 -915.6284 1983.7288)" class="st0" width="48" height="48"/>
	
		<rect x="-2116.5" y="368.5" transform="matrix(0.3772 0.9261 -0.9261 0.3772 -939.752 2182.4119)" class="st0" width="48" height="48"/>
</g>
<g id="Layer_3">
	<g>
		<g>
			<path class="st1" d="M635.07,383.7v98.37h-74.58c2.19-4.73,18.51-69.09,25.88-98.37H635.07z"/>
			<path class="st2" d="M586.38,383.7c-7.38,29.29-23.69,93.64-25.88,98.37H536.7V383.7H586.38z"/>
			<polygon class="st3" points="448.57,227.94 448.57,326.31 350.2,326.31 350.2,245.99 374.9,227.94 			"/>
			<polygon class="st2" points="374.9,227.94 350.2,245.99 350.2,227.94 			"/>
			<polygon class="st4" points="407.38,138.48 338.99,115.12 350.65,80.95 			"/>
			<polygon class="st3" points="440.68,45.9 407.38,138.48 350.65,80.95 370.8,22.03 			"/>
			<polygon class="st2" points="440.68,45.9 417.71,142 407.38,138.48 			"/>
			<polygon class="st5" points="463.88,53.84 432.08,146.92 417.71,142 440.68,45.9 			"/>
			<polygon class="st4" points="285.72,349.2 262.28,378.08 207.19,409.89 158,324.71 243.18,275.53 			"/>
			<polygon class="st2" points="292.36,360.7 262.28,378.08 285.72,349.2 			"/>
			<polygon class="st2" points="622.9,272.47 555.6,303.42 514.5,214.04 529.16,207.3 			"/>
			<polygon class="st6" points="644.97,262.33 622.9,272.47 529.16,207.3 603.88,172.95 			"/>
			
				<rect x="352.25" y="424.69" transform="matrix(0.3772 0.9261 -0.9261 0.3772 688.8992 -76.6456)" class="st2" width="98.37" height="98.37"/>
		</g>
		<g>
			<polygon class="st7" points="536.7,716.12 520.3,734.96 520.3,703.31 			"/>
			<path class="st8" d="M536.7,716.12l-15.53,272.44c-0.57-3.83-0.86-7.75-0.86-11.74V734.96L536.7,716.12z"/>
			<polygon class="st9" points="781.3,1057.97 601.46,1057.97 755.99,986.24 			"/>
			<path class="st10" d="M922,953.35v23.47c0,44.82-36.34,81.16-81.16,81.16H781.3l-25.31-71.73L922,953.35z"/>
			<polygon class="st11" points="922,705.16 922,794.27 817.48,797.69 			"/>
			<polygon class="st2" points="922,794.27 922,838.76 817.48,797.69 			"/>
			<polygon class="st12" points="922,838.76 922,953.35 755.99,986.24 817.48,797.69 			"/>
			<path class="st13" d="M755.99,986.24l-154.53,71.73c-40.83,0-74.62-30.17-80.3-69.42l15.53-272.44L755.99,986.24z"/>
			<polygon class="st1" points="592.06,523.06 536.7,716.12 520.3,703.31 520.3,523.06 			"/>
			<polygon class="st2" points="714.86,473.87 667.87,473.87 667.87,435.65 			"/>
			<path class="st14" d="M714.86,473.87L536.7,716.12l55.36-193.06h60.83c8.28,0,14.98-6.7,14.98-14.98v-34.21H714.86z"/>
			<path class="st2" d="M922,432.06V663.8L714.86,473.87l42.63-29.23c1.84,0.35,3.73,0.53,5.68,0.53h77.88
				c8.2,0,15.64-3.32,21.01-8.71c5.39-5.37,8.71-12.81,8.71-21.01c0-15.68-12.13-28.53-27.54-29.64l36.5-25.02
				C904.91,374.58,922,401.32,922,432.06z"/>
			<path class="st15" d="M879.72,360.8l-36.5,25.02c-0.72-0.06-1.43-0.08-2.17-0.08h-77.88c-8.2,0-15.64,3.32-21.01,8.71
				c-2.5,2.5-4.57,5.43-6.05,8.71l15.72-52.26h89.01C854.92,350.91,868.18,354.49,879.72,360.8z"/>
			<path class="st16" d="M751.83,350.91l-15.72,52.26c-1.11,2.4-1.89,4.98-2.3,7.67l-18.96,63.04l-46.99-94.23v-28.73H751.83z"/>
			<polygon class="st17" points="714.86,473.87 667.87,435.65 667.87,379.64 			"/>
			<polygon class="st18" points="817.48,797.69 536.7,716.12 714.86,473.87 			"/>
			<polygon class="st14" points="817.48,797.69 755.99,986.24 536.7,716.12 			"/>
			<path class="st15" d="M757.49,444.65l-42.63,29.23l18.96-63.04c-0.25,1.52-0.37,3.05-0.37,4.63
				C733.45,429.93,743.78,441.98,757.49,444.65z"/>
			<polygon class="st19" points="922,663.8 922,705.16 817.48,797.69 714.86,473.87 			"/>
		</g>
	</g>
	<g>
		<g>
			<g>
				<path class="st1" d="M-685.15,329.8V404h-56.25c1.65-3.57,13.96-52.11,19.52-74.2H-685.15z"/>
				<path class="st2" d="M-721.88,329.8c-5.57,22.09-17.87,70.63-19.52,74.2h-17.95v-74.2H-721.88z"/>
				<polygon class="st3" points="-825.83,212.31 -825.83,286.52 -900.03,286.52 -900.03,225.93 -881.4,212.31 				"/>
				<polygon class="st2" points="-881.4,212.31 -900.03,225.93 -900.03,212.31 				"/>
				<polygon class="st4" points="-856.9,144.84 -908.49,127.21 -899.69,101.44 				"/>
				<polygon class="st3" points="-831.78,75.01 -856.9,144.84 -899.69,101.44 -884.49,57 				"/>
				<polygon class="st2" points="-831.78,75.01 -849.11,147.5 -856.9,144.84 				"/>
				<polygon class="st5" points="-814.28,80.99 -838.27,151.21 -849.11,147.5 -831.78,75.01 				"/>
				<polygon class="st4" points="-948.66,303.78 -966.35,325.57 -1007.9,349.56 -1045,285.31 -980.76,248.21 				"/>
				<polygon class="st2" points="-943.66,312.46 -966.35,325.57 -948.66,303.78 				"/>
				<polygon class="st2" points="-694.34,245.91 -745.1,269.25 -776.1,201.83 -765.04,196.75 				"/>
				<polygon class="st6" points="-677.69,238.25 -694.34,245.91 -765.04,196.75 -708.68,170.84 				"/>
				
					<rect x="-898.48" y="360.72" transform="matrix(0.3772 0.9261 -0.9261 0.3772 -168.0538 1045.5363)" class="st2" width="74.2" height="74.2"/>
			</g>
			<g>
				<polygon class="st7" points="-759.36,580.54 -771.72,594.75 -771.72,570.88 				"/>
				<path class="st8" d="M-759.36,580.54l-11.72,205.49c-0.43-2.89-0.65-5.84-0.65-8.86V594.75L-759.36,580.54z"/>
				<polygon class="st9" points="-574.85,838.4 -710.51,838.4 -593.95,784.29 				"/>
				<path class="st10" d="M-468.73,759.48v17.7c0,33.81-27.41,61.22-61.22,61.22h-44.91l-19.09-54.11L-468.73,759.48z"/>
				<polygon class="st11" points="-468.73,572.27 -468.73,639.49 -547.57,642.07 				"/>
				<polygon class="st2" points="-468.73,639.49 -468.73,673.05 -547.57,642.07 				"/>
				<polygon class="st12" points="-468.73,673.05 -468.73,759.48 -593.95,784.29 -547.57,642.07 				"/>
				<path class="st13" d="M-593.95,784.29l-116.56,54.11c-30.79,0-56.29-22.76-60.57-52.36l11.72-205.49L-593.95,784.29z"/>
				<polygon class="st1" points="-717.6,434.92 -759.36,580.54 -771.72,570.88 -771.72,434.92 				"/>
				<polygon class="st2" points="-624.97,397.82 -660.42,397.82 -660.42,368.99 				"/>
				<path class="st14" d="M-624.97,397.82l-134.38,182.72l41.75-145.62h45.88c6.25,0,11.3-5.06,11.3-11.3v-25.8H-624.97z"/>
				<path class="st2" d="M-468.73,366.28v174.79l-156.24-143.26l32.15-22.04c1.39,0.26,2.81,0.4,4.28,0.4h58.74
					c6.18,0,11.8-2.5,15.85-6.57c4.07-4.05,6.57-9.66,6.57-15.85c0-11.83-9.15-21.52-20.78-22.35l27.53-18.88
					C-481.62,322.92-468.73,343.1-468.73,366.28z"/>
				<path class="st15" d="M-500.62,312.53l-27.53,18.88c-0.54-0.05-1.08-0.06-1.64-0.06h-58.74c-6.18,0-11.8,2.5-15.85,6.57
					c-1.89,1.89-3.45,4.1-4.56,6.57l11.86-39.42h67.14C-519.33,305.07-509.32,307.77-500.62,312.53z"/>
				<path class="st16" d="M-597.08,305.07l-11.86,39.42c-0.83,1.81-1.42,3.76-1.73,5.78l-14.3,47.55l-35.45-71.08v-21.67H-597.08z"
					/>
				<polygon class="st17" points="-624.97,397.82 -660.42,368.99 -660.42,326.74 				"/>
				<polygon class="st18" points="-547.57,642.07 -759.36,580.54 -624.97,397.82 				"/>
				<polygon class="st14" points="-547.57,642.07 -593.95,784.29 -759.36,580.54 				"/>
				<path class="st15" d="M-592.82,375.78l-32.15,22.04l14.3-47.55c-0.19,1.14-0.28,2.3-0.28,3.49
					C-610.95,364.68-603.16,373.77-592.82,375.78z"/>
				<polygon class="st19" points="-468.73,541.08 -468.73,572.27 -547.57,642.07 -624.97,397.82 				"/>
			</g>
		</g>
		<text transform="matrix(1 0 0 1 -1045.4744 982.3379)"><tspan x="0" y="0" style="fill:#C62949; font-family:'ConthraxSb-Regular'; font-size:149.4908px;">K</tspan><tspan x="127.66" y="0" style="font-family:'ConthraxSb-Regular'; font-size:149.4908px;">ov</tspan><tspan x="381.5" y="0" class="st2" style="font-family:'ConthraxSb-Regular'; font-size:149.4908px;">e</tspan><tspan x="499.44" y="0" style="font-family:'ConthraxSb-Regular'; font-size:149.4908px;">rU</tspan><tspan x="737.13" y="0" style="fill:#C62949; font-family:'ConthraxSb-Regular'; font-size:149.4908px;">p</tspan></text>
	</g>
</g>
</svg>
