<?xml version="1.0" encoding="utf-8"?>
<!-- Generator: Adobe Illustrator 27.0.0, SVG Export Plug-In . SVG Version: 6.00 Build 0)  -->
<svg version="1.1" id="Layer_1" xmlns="http://www.w3.org/2000/svg" xmlns:xlink="http://www.w3.org/1999/xlink" x="0px" y="0px"
	 viewBox="0 0 4040.6 1080" style="enable-background:new 0 0 4040.6 1080;" xml:space="preserve">
<style type="text/css">
	.st0{fill:#3B5FA0;}
	.st1{fill:#3D316C;}
	.st2{fill:#272349;}
	.st3{fill:#DF226F;}
	.st4{fill:#F5EAB8;}
	.st5{fill:#8B2C78;}
	.st6{fill:#F3E9B7;}
	.st7{fill:#489986;}
	.st8{fill:#499986;}
	.st9{fill:#F4EAB5;}
	.st10{fill:#498BA4;}
	.st11{fill:#EDAA2E;}
	.st12{fill:#4975A0;}
	.st13{fill:#F5E9B6;}
	.st14{fill:#C72948;}
	.st15{fill:#ECBD87;}
	.st16{fill:#F5EAB6;}
	.st17{fill:#B1B575;}
	.st18{fill:#6AB9B5;}
	.st19{fill:#FFFFFF;}
	.st20{font-family:'MyriadPro-Regular';}
	.st21{font-size:817.251px;}
</style>
<g id="Layer_3">
	<g>
		<g>
			<path class="st0" d="M635.1,383.7v98.4h-74.6c2.2-4.7,18.5-69.1,25.9-98.4H635.1z"/>
			<path class="st1" d="M586.4,383.7c-7.4,29.3-23.7,93.6-25.9,98.4h-23.8v-98.4H586.4z"/>
			<polygon class="st2" points="448.6,227.9 448.6,326.3 350.2,326.3 350.2,246 374.9,227.9 			"/>
			<polygon class="st1" points="374.9,227.9 350.2,246 350.2,227.9 			"/>
			<polygon class="st3" points="407.4,138.5 339,115.1 350.6,80.9 			"/>
			<polygon class="st2" points="440.7,45.9 407.4,138.5 350.6,80.9 370.8,22 			"/>
			<polygon class="st1" points="440.7,45.9 417.7,142 407.4,138.5 			"/>
			<polygon class="st4" points="463.9,53.8 432.1,146.9 417.7,142 440.7,45.9 			"/>
			<polygon class="st3" points="285.7,349.2 262.3,378.1 207.2,409.9 158,324.7 243.2,275.5 			"/>
			<polygon class="st1" points="292.4,360.7 262.3,378.1 285.7,349.2 			"/>
			<polygon class="st1" points="622.9,272.5 555.6,303.4 514.5,214 529.2,207.3 			"/>
			<polygon class="st5" points="645,262.3 622.9,272.5 529.2,207.3 603.9,172.9 			"/>
			
				<rect x="352.3" y="424.7" transform="matrix(0.9261 -0.3772 0.3772 0.9261 -149.0919 186.4541)" class="st1" width="98.4" height="98.4"/>
		</g>
		<g>
			<polygon class="st6" points="536.7,716.1 520.3,735 520.3,703.3 			"/>
			<path class="st7" d="M536.7,716.1l-15.5,272.4c-0.6-3.8-0.9-7.8-0.9-11.7V735L536.7,716.1z"/>
			<polygon class="st8" points="781.3,1058 601.5,1058 756,986.2 			"/>
			<path class="st9" d="M922,953.3v23.5c0,44.8-36.3,81.2-81.2,81.2h-59.5L756,986.2L922,953.3z"/>
			<polygon class="st10" points="922,705.2 922,794.3 817.5,797.7 			"/>
			<polygon class="st1" points="922,794.3 922,838.8 817.5,797.7 			"/>
			<polygon class="st11" points="922,838.8 922,953.3 756,986.2 817.5,797.7 			"/>
			<path class="st12" d="M756,986.2L601.5,1058c-40.8,0-74.6-30.2-80.3-69.4l15.5-272.4L756,986.2z"/>
			<polygon class="st0" points="592.1,523.1 536.7,716.1 520.3,703.3 520.3,523.1 			"/>
			<polygon class="st1" points="714.9,473.9 667.9,473.9 667.9,435.6 			"/>
			<path class="st13" d="M714.9,473.9L536.7,716.1L592.1,523h60.8c8.3,0,15-6.7,15-15v-34.2h47V473.9z"/>
			<path class="st1" d="M922,432.1v231.7L714.9,473.9l42.6-29.2c1.8,0.4,3.7,0.5,5.7,0.5H841c8.2,0,15.6-3.3,21-8.7
				c5.4-5.4,8.7-12.8,8.7-21c0-15.7-12.1-28.5-27.5-29.6l36.5-25C904.9,374.6,922,401.3,922,432.1z"/>
			<path class="st14" d="M879.7,360.8l-36.5,25c-0.7-0.1-1.4-0.1-2.2-0.1h-77.9c-8.2,0-15.6,3.3-21,8.7c-2.5,2.5-4.6,5.4-6,8.7
				l15.7-52.3h89C854.9,350.9,868.2,354.5,879.7,360.8z"/>
			<path class="st15" d="M751.8,350.9l-15.7,52.3c-1.1,2.4-1.9,5-2.3,7.7l-19,63l-47-94.2V351L751.8,350.9L751.8,350.9z"/>
			<polygon class="st16" points="714.9,473.9 667.9,435.6 667.9,379.6 			"/>
			<polygon class="st17" points="817.5,797.7 536.7,716.1 714.9,473.9 			"/>
			<polygon class="st13" points="817.5,797.7 756,986.2 536.7,716.1 			"/>
			<path class="st14" d="M757.5,444.6l-42.6,29.2l19-63c-0.2,1.5-0.4,3-0.4,4.6C733.5,429.9,743.8,442,757.5,444.6z"/>
			<polygon class="st18" points="922,663.8 922,705.2 817.5,797.7 714.9,473.9 			"/>
		</g>
	</g>
</g>
<text transform="matrix(1 0 0 1 1044.1797 838.8)" class="st19 st20 st21">KoverUp</text>
</svg>
